<svg width="97" height="93" viewBox="0 0 97 93" fill="none" xmlns="http://www.w3.org/2000/svg">
<path d="M9.64179 30.9073L9.11112 32.1595L4.53508 30.2203L8.31512 34.0378L7.86639 35.0967L2.53118 35.0513L7.07039 36.975L6.55533 38.1903L0.0273438 35.4238L0.737502 33.7481L6.28277 33.7847L2.38023 29.8718L3.1138 28.1408L9.64179 30.9073Z" fill="#2BB640"/>
<path d="M13.8409 24.6598L12.1752 24.2149L10.5246 26.575L11.5141 27.987L10.6773 29.1834L6.42602 22.8911L7.34298 21.5799L14.7005 23.4306L13.8409 24.6598ZM8.12112 23.137L9.7557 25.476L10.879 23.8698L8.12112 23.137Z" fill="#2BB640"/>
<path d="M20.9638 17.337L19.9039 18.3265L14.1176 16.8472L17.5502 20.524L16.5415 21.4657L11.7031 16.2832L12.9604 15.1094L18.3173 16.5245L15.1167 13.0963L16.1254 12.1545L20.9638 17.337Z" fill="#2BB640"/>
<path d="M24.2324 13.5482L25.175 12.9811C26.1689 12.3831 26.6341 11.2747 25.835 9.94651C25.0411 8.62694 23.8421 8.49634 22.8482 9.09436L21.8971 9.6666L24.2324 13.5482ZM25.8777 14.0521L23.7098 15.3564L20.0547 9.28125L22.2311 7.97179C23.962 6.93041 25.9055 7.28991 27.0603 9.2093C28.2151 11.1287 27.6086 13.0108 25.8777 14.0521Z" fill="#2BB640"/>
<path d="M36.3663 9.40808L35.2803 8.06906L32.5577 9.00827L32.5283 10.7321L31.1481 11.2082L31.4072 3.61882L32.9198 3.09703L37.7843 8.91891L36.3663 9.40808ZM32.6341 4.81407L32.5817 7.66714L34.4345 7.02795L32.6341 4.81407Z" fill="#2BB640"/>
<path d="M52.3555 8.06471C50.8512 7.93398 49.7263 6.90272 49.8769 5.16925L50.2734 0.606445L51.6483 0.725922L51.2604 5.1891C51.1799 6.11561 51.6455 6.64792 52.4724 6.71978C53.3093 6.79251 53.8598 6.3485 53.9403 5.42199L54.3282 0.958816L55.703 1.07829L55.3064 5.6411C55.1558 7.37456 53.8698 8.19631 52.3555 8.06471Z" fill="#2BB640"/>
<path d="M65.1842 10.8094L63.8834 10.4125L65.3338 5.65885L61.9322 9.81722L60.8323 9.48163L60.3197 4.17091L58.8811 8.88633L57.6185 8.50113L59.6875 1.71973L61.4283 2.25083L61.9715 7.76955L65.455 3.47938L67.2532 4.028L65.1842 10.8094Z" fill="#2BB640"/>
<path d="M79.6705 20.4836L75.4571 16.8253L76.3356 15.8134L82.0329 14.8801L79.3448 12.5461L80.2036 11.5569L84.2811 15.0973L83.4354 16.0713L77.6666 16.9956L80.5359 19.4869L79.6705 20.4836Z" fill="#2BB640"/>
<path d="M85.0241 27.0244L85.962 25.5777L84.2274 23.2786L82.5789 23.7833L81.6995 22.6178L88.9976 20.519L89.9612 21.7963L85.9275 28.2218L85.0241 27.0244ZM88.2399 22.0552L85.5103 22.8869L86.6908 24.4516L88.2399 22.0552Z" fill="#2BB640"/>
<path d="M91.6499 30.9338L92.1111 31.9214C92.4031 32.5466 92.9432 32.7579 93.4959 32.4998C94.0758 32.2289 94.2424 31.6876 93.9504 31.0624L93.4892 30.0748L91.6499 30.9338ZM91.1048 32.579L90.5674 31.4283L88.1482 32.5581L87.5643 31.3077L93.9883 28.3076L95.1096 30.7087C95.702 31.9772 95.2529 33.2133 94.0931 33.755C92.9243 34.3008 91.6972 33.8475 91.1048 32.579Z" fill="#2BB640"/>
<path d="M76.5037 24.0895C69.0163 16.597 59.0603 12.4684 48.4529 12.4639C26.5947 12.4639 8.80652 30.2464 8.79777 52.1036C8.79522 59.0903 10.6208 65.9104 14.0906 71.9222L8.46484 92.4639L29.4865 86.9517C35.2783 90.1104 41.7996 91.7748 48.4359 91.7775H48.4527H48.4529C70.3076 91.7775 88.0984 73.9919 88.1077 52.1357C88.1113 41.5427 83.9901 31.5826 76.5037 24.0895ZM48.4529 85.0822H48.44C42.5248 85.0791 36.7241 83.491 31.6645 80.4887L30.4604 79.7749L17.9858 83.0456L21.3163 70.8873L20.5318 69.6409C17.2323 64.3945 15.4904 58.3316 15.4929 52.1061C15.5001 33.9391 30.285 19.1594 48.4654 19.1594C57.2693 19.1631 65.5439 22.5947 71.7672 28.8223C77.9901 35.0498 81.4146 43.3284 81.412 52.1329C81.4043 70.3005 66.6189 85.0822 48.4529 85.0822Z" fill="#E0E0E0"/>
<path d="M10.2852 90.1848L15.654 70.5814C12.3417 64.8442 10.5999 58.3352 10.602 51.6689C10.6107 30.8105 27.5865 13.8408 48.4444 13.8408C58.5678 13.8454 68.0692 17.7851 75.2129 24.9356C82.3582 32.086 86.2908 41.5905 86.2867 51.6985C86.278 72.5574 69.3012 89.5286 48.4459 89.5286C48.4469 89.5286 48.4444 89.5286 48.4459 89.5286H48.4291C42.0959 89.5266 35.8731 87.9368 30.3462 84.9246L10.2852 90.1848Z" fill="url(#paint0_linear_8429_11001)"/>
<path fill-rule="evenodd" clip-rule="evenodd" d="M38.6564 35.2749C37.9228 33.6438 37.1504 33.6111 36.4524 33.5826C35.8815 33.5581 35.2279 33.5596 34.5754 33.5596C33.9223 33.5596 32.8611 33.805 31.9637 34.7851C31.0657 35.7652 28.5352 38.1345 28.5352 42.9534C28.5352 47.7727 32.0453 52.4293 32.5346 53.0833C33.0244 53.7364 39.3105 63.9414 49.266 67.8673C57.5398 71.13 59.2235 70.481 61.0194 70.3178C62.8153 70.1545 66.8142 67.949 67.6305 65.6617C68.4469 63.375 68.4469 61.4148 68.202 61.0051C67.9571 60.597 67.304 60.3521 66.3244 59.8623C65.3449 59.3725 60.5296 57.0026 59.6317 56.6761C58.7337 56.3496 58.0807 56.1863 57.4276 57.1669C56.7746 58.1465 54.8986 60.3521 54.3271 61.0051C53.7557 61.6597 53.1843 61.7413 52.2047 61.2515C51.2251 60.7602 48.0706 59.727 44.3283 56.3903C41.4166 53.7944 39.4508 50.5883 38.8794 49.6078C38.308 48.6282 38.8181 48.0976 39.3095 47.6093C39.7492 47.1705 40.2891 46.4659 40.7788 45.894C41.2676 45.322 41.4309 44.9139 41.7574 44.2608C42.0839 43.6067 41.9206 43.0349 41.6757 42.5451C41.4309 42.0553 39.5273 37.2116 38.6564 35.2749Z" fill="white"/>
<path d="M76.1796 23.9639C68.7782 16.5574 58.9365 12.4763 48.451 12.4717C26.8436 12.4717 9.25963 30.05 9.25095 51.6563C9.2484 58.563 11.053 65.3047 14.483 71.2475L8.92188 91.5533L29.7022 86.1044C35.4277 89.2267 41.874 90.8722 48.4341 90.8747H48.4508H48.451C70.0547 90.8747 87.6412 73.2933 87.6504 51.6879C87.654 41.2167 83.5801 31.371 76.1796 23.9639ZM48.451 84.2565H48.4382C42.5909 84.2534 36.8567 82.6835 31.8553 79.7157L30.6649 79.0101L18.3335 82.2432L21.6258 70.2245L20.8503 68.9924C17.5886 63.8063 15.8667 57.8129 15.8692 51.659C15.8764 33.7005 30.4915 19.0905 48.4632 19.0905C57.1662 19.0941 65.3457 22.4864 71.4976 28.6424C77.6491 34.7985 81.0342 42.982 81.0317 51.6855C81.024 69.6444 66.4083 84.2565 48.451 84.2565Z" fill="white"/>
<defs>
<linearGradient id="paint0_linear_8429_11001" x1="48.286" y1="90.1848" x2="48.286" y2="13.8409" gradientUnits="userSpaceOnUse">
<stop stop-color="#20B038"/>
<stop offset="1" stop-color="#60D66A"/>
</linearGradient>
</defs>
</svg>
