<svg width="40" height="40" viewBox="0 0 40 40" fill="none" xmlns="http://www.w3.org/2000/svg">
<g id="x-lg 1">
<g id="Group 5632">
<path id="Vector" d="M5.36463 7.13511C5.24841 7.01889 5.15622 6.88092 5.09332 6.72907C5.03042 6.57722 4.99805 6.41447 4.99805 6.25011C4.99805 6.08575 5.03042 5.923 5.09332 5.77116C5.15622 5.61931 5.24841 5.48133 5.36463 5.36511C5.48085 5.24889 5.61882 5.1567 5.77067 5.09381C5.92252 5.03091 6.08527 4.99854 6.24963 4.99854C6.41399 4.99854 6.57674 5.03091 6.72858 5.09381C6.88043 5.1567 7.01841 5.24889 7.13463 5.36511L19.9996 18.2326L32.8646 5.36511C32.9808 5.24889 33.1188 5.1567 33.2707 5.09381C33.4225 5.03091 33.5853 4.99854 33.7496 4.99854C33.914 4.99854 34.0767 5.03091 34.2286 5.09381C34.3804 5.1567 34.5184 5.24889 34.6346 5.36511C34.7508 5.48133 34.843 5.61931 34.9059 5.77116C34.9688 5.923 35.0012 6.08575 35.0012 6.25011C35.0012 6.41447 34.9688 6.57722 34.9059 6.72907C34.843 6.88092 34.7508 7.01889 34.6346 7.13511L21.7671 20.0001L34.6346 32.8651C34.7508 32.9813 34.843 33.1193 34.9059 33.2712C34.9688 33.423 35.0012 33.5858 35.0012 33.7501C35.0012 33.9145 34.9688 34.0772 34.9059 34.2291C34.843 34.3809 34.7508 34.5189 34.6346 34.6351C34.5184 34.7513 34.3804 34.8435 34.2286 34.9064C34.0767 34.9693 33.914 35.0017 33.7496 35.0017C33.5853 35.0017 33.4225 34.9693 33.2707 34.9064C33.1188 34.8435 32.9808 34.7513 32.8646 34.6351L19.9996 21.7676L7.13463 34.6351C7.01841 34.7513 6.88043 34.8435 6.72858 34.9064C6.57674 34.9693 6.41399 35.0017 6.24963 35.0017C6.08527 35.0017 5.92252 34.9693 5.77067 34.9064C5.61882 34.8435 5.48085 34.7513 5.36463 34.6351C5.24841 34.5189 5.15622 34.3809 5.09332 34.2291C5.03042 34.0772 4.99805 33.9145 4.99805 33.7501C4.99805 33.5858 5.03042 33.423 5.09332 33.2712C5.15622 33.1193 5.24841 32.9813 5.36463 32.8651L18.2321 20.0001L5.36463 7.13511Z" fill="#F2F3F4"/>
</g>
</g>
</svg>
