<svg width="94" height="20" viewBox="0 0 94 20" fill="none" xmlns="http://www.w3.org/2000/svg">
<g id="Group 5577">
<path id="Vector" d="M0.740735 9.65947C1.28034 9.79062 1.58574 9.90304 2.03354 10.6975C3.59052 13.5575 5.1578 16.6931 6.6642 19.807C6.85718 19.97 7.07171 20 7.40709 20C7.7228 20 7.93639 19.9691 8.13968 19.807L11.59 13.3646C12.5455 15.1258 14.1943 18.3203 14.8566 19.807C15.0402 19.97 15.2641 20 15.578 20C15.8918 20 16.1279 19.9691 16.3105 19.807C17.6436 16.8963 19.0994 13.8836 20.5637 11.0741C21.0724 10.066 21.2963 9.79062 22.3436 9.59857L22.7914 9.52738C23.0462 9.27257 22.975 8.68237 22.6996 8.56059C21.997 8.62148 21.1726 8.64209 20.2573 8.64209C19.4639 8.64209 18.7116 8.62148 17.6624 8.56059C17.3467 8.68237 17.3467 9.32409 17.5406 9.52738L18.0802 9.63043C18.6301 9.74284 18.8737 9.88524 18.8737 10.0173C18.8737 10.2103 18.7819 10.5869 18.5786 11.0759C18.0699 12.3481 17.5809 13.6915 16.7986 15.2794C16.096 13.9566 15.221 12.1748 14.6412 10.8623C14.4575 10.4033 14.3863 10.2309 14.3863 10.0173C14.3863 9.87494 14.8238 9.74284 15.5667 9.60982L16.0351 9.53862C16.26 9.4262 16.2899 8.60181 15.9433 8.57183C13.9179 8.63272 12.33 8.65333 10.3253 8.65333H3.91278C2.5797 8.65333 1.57075 8.63272 0.259213 8.57183C-0.0667974 8.70298 -0.0667971 9.31472 0.156164 9.53862L0.740735 9.65947ZM7.93545 9.65947C8.51627 9.65947 9.02403 9.68008 9.46245 9.76252C10.0939 9.87494 10.6428 10.7602 10.6428 11.1865C10.6428 11.4001 10.6428 11.6455 10.551 12.0109C10.388 12.5608 9.31912 14.5346 8.87133 15.2775C8.33172 14.4025 7.05953 11.9294 6.62298 10.9719C6.42999 10.5644 6.33819 10.229 6.33819 10.066C6.31758 9.76064 6.91901 9.65853 7.93639 9.65853L7.93545 9.65947ZM27.2225 20C29.1261 20 31.4757 19.2065 32.7797 16.8757C32.7797 16.4073 32.3019 16.1825 31.9553 16.235C31.1 17.5071 29.8896 17.6589 29.0044 17.6589C26.0534 17.6589 24.5264 15.6541 24.5264 13.6081C24.5264 13.1706 24.5976 13.1097 25.3199 13.1097H31.3867C32.3741 13.1097 32.5268 12.7228 32.5268 12.2039C32.5268 10.096 30.7468 8.25519 27.4492 8.25519C23.4903 8.25519 20.5993 10.942 20.5993 14.4025C20.6302 17.3947 22.9413 20 27.215 20H27.2225ZM27.2628 9.52644C28.342 9.52644 28.9425 10.126 28.9425 11.0328C28.9425 11.3073 28.8713 11.593 28.7289 11.6642C28.3729 11.8572 27.8736 11.9078 27.4268 11.9078H26.2464C25.229 11.9078 24.7812 11.8872 24.7812 11.5003C24.7906 10.615 25.9316 9.5255 27.2638 9.5255L27.2628 9.52644ZM33.502 9.6576C34.0519 9.78875 34.3573 9.90117 34.8042 10.6956C36.3611 13.5557 37.9191 16.6912 39.4348 19.8051C39.6278 19.9681 39.8423 19.9981 40.1674 19.9981C40.4831 19.9981 40.6967 19.9672 40.9 19.8051L44.3606 13.3627C45.2974 15.1239 46.9555 18.3184 47.6272 19.8051C47.8202 19.9681 48.0348 19.9981 48.3486 19.9981C48.6624 19.9981 48.8985 19.9672 49.0812 19.8051C50.4143 16.8945 51.8701 13.8817 53.3343 11.0722C53.843 10.0642 54.0556 9.78875 55.1142 9.5967L55.562 9.5255C55.8168 9.27069 55.7457 8.6805 55.459 8.55871C54.7564 8.61961 53.932 8.64022 53.0167 8.64022C52.2232 8.64022 51.471 8.61961 50.4217 8.55871C50.106 8.6805 50.106 9.32222 50.3 9.5255L50.8396 9.62855C51.3792 9.74097 51.633 9.88337 51.633 10.0155C51.633 10.2084 51.5412 10.585 51.3483 11.0741C50.8396 12.3462 50.3309 13.6896 49.5683 15.2775C48.8657 13.9548 47.9907 12.1729 47.4108 10.8605C47.2179 10.4014 47.156 10.2291 47.156 10.0155C47.156 9.87306 47.5935 9.74097 48.3364 9.60794L48.8048 9.53675C49.0296 9.42433 49.069 8.59993 48.713 8.56996C46.6876 8.63085 45.0997 8.65146 43.0949 8.65146H36.6797C35.3466 8.65146 34.3376 8.63085 33.0261 8.56996C32.7104 8.70111 32.7104 9.31285 32.9343 9.53675L33.502 9.6576ZM40.7079 9.6576C41.2888 9.6576 41.7965 9.6782 42.235 9.76064C42.8664 9.87306 43.4153 10.7583 43.4153 11.1846C43.4153 11.3982 43.4153 11.6436 43.3235 12.009C43.1605 12.5589 42.0916 14.5328 41.6438 15.2757C41.0939 14.4007 39.832 11.9275 39.3955 10.9701C39.2119 10.5626 39.1107 10.2272 39.1107 10.0642C39.0901 9.75877 39.6915 9.65666 40.7089 9.65666L40.7079 9.6576ZM60.6667 19.9981C64.5639 19.9981 67.9551 18.1058 67.9551 14.0962C67.9551 10.2291 64.5864 8.25425 60.8513 8.25425C57.1059 8.25425 53.5235 10.422 53.5441 14.3407C53.5844 18.1273 56.8726 19.9991 60.6583 19.9991L60.6667 19.9981ZM60.6667 9.52457C62.4682 9.52457 63.3535 11.8244 63.3947 14.4803C63.4153 16.9535 62.8139 18.7334 61.003 18.7334C59.1706 18.7334 58.1223 16.6162 58.1223 13.7365C58.1223 10.7546 59.2728 9.52269 60.6667 9.52269V9.52457ZM73.3699 10.6131C73.5629 10.6131 73.8477 10.6338 74.5709 11.1631C74.9784 11.5003 75.3644 11.6614 75.8028 11.6614C76.8202 11.6614 77.8385 11.1424 77.8385 9.88149C77.8385 8.8435 76.9429 8.26362 76.0867 8.26362C74.7536 8.26362 73.8383 9.16952 72.9821 9.63792C72.7272 9.58733 72.6664 9.50677 72.6664 9.31191C72.6664 9.06834 72.7376 8.6805 72.7881 8.13153C72.6664 7.96852 72.4724 7.87671 72.2279 7.87671C71.2405 8.43693 69.0428 9.16952 67.587 9.53487C67.3734 9.69788 67.3734 10.186 67.587 10.3593L68.046 10.6028C68.6456 10.9288 68.6456 11.2539 68.6456 12.364V16.5066C68.6456 18.4196 68.5238 18.6744 67.4652 18.755L66.8656 18.8056C66.6108 18.9789 66.6108 19.599 66.8965 19.7724C67.9458 19.7115 69.3388 19.6909 70.6419 19.6909C72.1277 19.6909 73.3999 19.7115 74.9269 19.7724C75.2117 19.599 75.2117 18.9789 74.9475 18.8056L73.9301 18.7344C72.8809 18.6529 72.7497 18.429 72.7497 16.5048V12.2797C72.7591 11.2211 72.923 10.6103 73.3708 10.6103L73.3699 10.6131ZM85.7873 18.6435L85.3798 18.725C85.1157 18.9686 85.1869 19.54 85.5016 19.6805C86.3972 19.63 87.527 19.599 89.41 19.599C91.2518 19.599 92.4228 19.6197 93.4008 19.6805C93.7165 19.5775 93.7877 18.917 93.5226 18.725L93.0542 18.6435C92.2298 18.5123 91.6302 18.369 91.1918 18.0121C90.3983 17.3807 87.5991 13.6465 87.0389 12.7706C86.8656 12.557 86.8047 12.394 86.8047 12.3116C86.8047 12.2291 86.8356 12.1186 86.9883 11.9462C87.4361 11.5696 87.9252 11.1527 89.1149 10.3583C89.9599 9.78875 90.6419 9.51332 91.2415 9.40278L92.2495 9.2098C92.4743 8.99621 92.4425 8.3854 92.1277 8.25425C90.1386 8.49829 88.137 8.62747 86.133 8.64115H85.3798C85.0641 8.76294 85.0238 9.35313 85.3086 9.5967L86.1021 9.71849C86.3869 9.7391 86.7017 9.84964 86.7017 9.98267C86.7017 10.156 86.549 10.4417 85.9485 11.0712L84.6154 12.4352C84.3772 12.682 84.0907 12.8771 83.7739 13.0084C83.457 13.1398 83.1166 13.2046 82.7736 13.1987C82.427 13.1987 82.3258 13.1172 82.3258 12.8118V4.20254C82.3258 2.47225 82.3661 1.32184 82.4289 0.192983C82.3071 0.0505873 82.0729 0 81.879 0C80.2611 0.59956 78.3266 1.26189 77.0244 1.527C76.7996 1.70031 76.7996 2.18839 77.0244 2.3514L77.564 2.62588C78.1954 2.95189 78.1954 3.2573 78.1954 4.35618V16.4176C78.1954 18.3306 78.0736 18.5554 76.912 18.666L76.3124 18.7166C76.0576 18.8796 76.0576 19.51 76.3433 19.6721C77.4525 19.6215 78.7556 19.5906 80.2105 19.5906C81.6757 19.5906 82.9994 19.6112 84.0168 19.6721C84.2913 19.5091 84.2913 18.8786 84.0374 18.7166L83.5287 18.666C82.4092 18.5442 82.2874 18.3287 82.2874 16.4176V14.8297C82.2874 14.3107 82.4504 14.1786 82.664 14.1786C82.9797 14.1786 83.2336 14.2911 83.4575 14.5862L85.7274 17.5484C85.9822 17.8744 86.267 18.3119 86.267 18.4336C86.2979 18.5461 86.1143 18.5967 85.7892 18.6472L85.7873 18.6435Z" fill="#F2F3F4"/>
</g>
</svg>
