<svg width="66" height="21" viewBox="0 0 66 21" fill="none" xmlns="http://www.w3.org/2000/svg">
<g id="Logo">
<g id="Vector">
<path d="M65.9951 20.6204C66.1237 17.0276 63.7163 14.1933 59.8497 14.1933C59.4493 14.1933 59.0362 14.2447 58.6281 14.3314L65.6109 5.43961H52.0406V8.80507H58.7133L49.6077 20.6204H53.9863C55.42 18.6977 57.1357 17.382 59.21 17.382C61.2843 17.382 62.3338 18.6472 62.2571 20.6204H65.9951Z" fill="#F2F3F4"/>
<path d="M48.996 8.80507V5.43961H44.0288V4.45304C44.0288 1.72061 42.2109 0 39.2916 0C36.3722 0 34.4266 1.82162 34.4266 4.42779C34.4266 7.21073 36.3722 8.80507 39.7269 8.80507H40.3411V16.1168C40.3411 19.2289 41.9801 21 45.2828 21C46.4353 21 47.3562 20.8232 47.869 20.5698V17.4073C47.4082 17.584 46.8962 17.7111 46.1789 17.7111C44.643 17.7111 44.028 16.9014 44.028 15.4846V8.80507H48.996ZM39.3938 5.43961C38.4465 5.43961 37.8834 4.98421 37.8834 4.19966C37.8834 3.49088 38.3698 3.01022 39.0616 3.01022C39.8555 3.01022 40.3419 3.56664 40.3419 4.47745V5.43877H39.3946L39.3938 5.43961Z" fill="#F2F3F4"/>
<path d="M27.9515 5.11721C22.5259 4.52291 18.3169 8.68133 18.9166 14.0427C19.2965 17.4384 22.4638 20.5682 25.9002 20.9436C31.3257 21.5362 35.5331 17.3795 34.9334 12.0182C34.5535 8.62324 31.3871 5.49349 27.9515 5.11721Z" fill="#F2F3F4"/>
<path d="M16.6429 0.379645H12.9561V4.17525C12.9561 5.93458 12.9015 6.71997 12.7337 8.2074C11.3145 6.02297 9.24873 5.06081 6.83709 5.06081C2.43208 5.05997 0 8.77981 0 12.929C0 17.0781 2.43208 21 6.83624 21C9.25044 21 11.3179 20.0362 12.7371 17.8475C12.9237 19.2786 12.9561 20.0059 12.9561 20.6204H16.6429V19.8611C16.6429 17.3997 16.2102 14.9383 15.6377 12.9534C16.2707 10.9828 16.6429 8.65523 16.6429 4.42779V0.379645ZM7.19488 17.5083C4.78835 17.5083 3.738 15.307 3.738 12.929C3.738 10.6772 4.7875 8.55169 7.19488 8.55169C9.03832 8.55169 10.754 10.247 11.5735 12.929C10.754 15.7372 9.03832 17.5083 7.19488 17.5083Z" fill="#F2F3F4"/>
</g>
</g>
</svg>
