<svg width="80" height="21" viewBox="0 0 80 21" fill="none" xmlns="http://www.w3.org/2000/svg">
<g id="banco-rci 3" clip-path="url(#clip0_8616_519)">
<g id="banco-rci">
<path id="Vector" d="M24.2675 4.84192C25.835 4.84192 26.9961 5.77525 26.9961 7.05859C26.9961 7.81692 26.5897 8.45859 25.893 8.75025C26.7639 8.92525 27.3444 9.74192 27.3444 10.6169C27.3444 11.9586 26.0672 12.9503 24.2675 12.9503H20.7842V4.84192H24.2675ZM22.7581 6.47525V7.99192H24.0933C24.6158 7.99192 24.9642 7.70025 24.9642 7.23359C24.9642 6.76692 24.6739 6.47525 24.0933 6.47525H22.7581ZM24.2675 11.2586C24.9061 11.2586 25.2544 10.9669 25.2544 10.4419C25.2544 9.91692 24.9061 9.62525 24.2675 9.62525H22.7581V11.3169L24.2675 11.2586Z" fill="#F2F3F4"/>
<path id="Vector_2" d="M33.268 11.4334H30.0749L29.5524 12.8918H27.5205L30.5394 4.78345H32.9196L35.9385 12.8918H33.7905L33.268 11.4334ZM30.5974 9.80011H32.6874L31.6424 6.82511L30.5974 9.80011Z" fill="#F2F3F4"/>
<path id="Vector_3" d="M38.4319 8.16692V12.9503H36.458V4.84192H38.3158L41.6249 9.74192V4.84192H43.5988V12.9503H41.741L38.4319 8.16692Z" fill="#F2F3F4"/>
<path id="Vector_4" d="M51.2031 12.5423C50.5065 12.9507 49.8098 13.0673 48.8229 13.0673C46.3265 13.0673 44.4688 11.3173 44.4688 8.92566C44.4688 6.53399 46.3265 4.72566 48.8809 4.72566C49.6357 4.66733 50.3904 4.84233 51.087 5.25066V7.11733C50.4484 6.70899 49.6937 6.47566 48.8809 6.53399C47.3715 6.53399 46.5007 7.40899 46.5007 8.86733C46.5007 10.3257 47.3715 11.2007 48.8809 11.2007C49.6937 11.2007 50.4484 11.0257 51.1451 10.6173L51.2031 12.5423Z" fill="#F2F3F4"/>
<path id="Vector_5" d="M55.9656 4.72498C58.4039 4.72498 60.2036 6.47498 60.2036 8.86664C60.2036 11.2583 58.4039 13.0083 55.9656 13.0083C53.5273 13.0083 51.7275 11.2583 51.7275 8.86664C51.7275 6.47498 53.5273 4.72498 55.9656 4.72498ZM55.9656 6.53331C54.5722 6.53331 53.7595 7.40831 53.7595 8.86664C53.7595 10.325 54.5722 11.2 55.9656 11.2C57.3589 11.2 58.1136 10.325 58.1136 8.86664C58.1136 7.40831 57.3589 6.53331 55.9656 6.53331Z" fill="#F2F3F4"/>
<path id="Vector_6" d="M66.3588 10.0336H65.4299V12.8919H63.4561V4.84192H66.7652C68.5649 4.84192 69.9002 5.89192 69.9002 7.40859C69.9002 8.40025 69.2616 9.33359 68.3327 9.68359L70.2485 12.8919H67.9263L66.3588 10.0336ZM65.3719 6.59192V8.34192H66.6491C67.3458 8.34192 67.6941 8.05025 67.6941 7.46692C67.6941 6.94192 67.2877 6.59192 66.6491 6.59192H65.3719Z" fill="#F2F3F4"/>
<path id="Vector_7" d="M77.1553 12.5423C76.4586 12.9507 75.762 13.0673 74.775 13.0673C72.2787 13.0673 70.4209 11.3173 70.4209 8.92566C70.4209 6.53399 72.2787 4.72566 74.8331 4.72566C75.5878 4.66733 76.4006 4.84233 77.0392 5.25066V7.11733C76.4006 6.70899 75.6459 6.47566 74.8331 6.53399C73.3236 6.53399 72.4528 7.40899 72.4528 8.86733C72.4528 10.3257 73.3236 11.2007 74.8331 11.2007C75.6459 11.2007 76.4006 11.0257 77.0972 10.6173L77.1553 12.5423Z" fill="#F2F3F4"/>
<path id="Vector_8" d="M80.0012 12.9503H78.0273V4.84192H80.0012V12.9503Z" fill="#F2F3F4"/>
<path id="Vector_9" d="M17.6488 8.86667C17.6488 13.7667 13.701 17.7333 8.82438 17.7333C3.94775 17.7333 0 13.7667 0 8.86667C0 3.96667 3.94775 0 8.82438 0C13.701 0 17.6488 3.96667 17.6488 8.86667Z" fill="#F2F3F4"/>
<path id="Vector_10" d="M22.6419 16.1007C23.5708 16.1007 24.2094 16.6257 24.2094 17.3257C24.2094 17.7924 23.9192 18.2007 23.4547 18.3757C24.0353 18.4924 24.3836 18.959 24.3836 19.5424C24.3836 20.359 23.6869 20.884 22.7 20.884H20.7842V16.1007H22.6419ZM21.4808 16.7424V18.1424H22.7C23.1064 18.2007 23.4547 17.909 23.5128 17.5007V17.4424C23.5128 16.9757 23.1644 16.7424 22.6419 16.7424H21.4808ZM22.7 20.3007C23.3386 20.3007 23.6869 20.009 23.6869 19.484C23.6869 18.959 23.3386 18.6674 22.8161 18.6674H21.5389V20.2424L22.7 20.3007Z" fill="#F2F3F4"/>
<path id="Vector_11" d="M26.9946 18.9581H25.9496V20.9414H25.2529V16.1581H27.1107C28.0396 16.1581 28.7943 16.7414 28.7943 17.5581C28.7943 18.1997 28.3299 18.7247 27.7493 18.8997L29.0265 20.9414H28.2137L26.9946 18.9581ZM25.9496 16.7414V18.3164H27.1107C27.6912 18.3164 28.0396 18.0247 28.0396 17.4997C28.0396 17.0331 27.6912 16.7414 27.1107 16.7414H25.9496Z" fill="#F2F3F4"/>
<path id="Vector_12" d="M32.6263 19.834H30.2461L29.8397 20.884H29.085L31.0588 16.1007H31.8716L33.8455 20.884H33.0908L32.6263 19.834ZM30.4783 19.2507H32.3941L31.4652 16.859L30.4783 19.2507Z" fill="#F2F3F4"/>
<path id="Vector_13" d="M34.0771 19.8924C34.5996 20.184 35.1802 20.359 35.7607 20.359C36.4574 20.359 36.8638 20.1257 36.8638 19.659C36.8638 19.1924 36.5155 19.0174 35.7027 18.784C34.6577 18.434 34.1352 18.0257 34.1352 17.384C34.1352 16.6257 34.8319 16.1007 35.9349 16.1007C36.3994 16.1007 36.8638 16.2174 37.3282 16.3924V17.034C36.8638 16.8007 36.3994 16.7424 35.9349 16.7424C35.3544 16.7424 34.948 16.9757 34.948 17.384C34.948 17.7924 35.2963 17.909 36.1671 18.2007C37.2702 18.5507 37.6766 18.959 37.6766 19.659C37.6766 20.534 36.8638 21.059 35.8188 21.059C35.2383 21.059 34.7158 20.9424 34.1933 20.6507V19.8924H34.0771Z" fill="#F2F3F4"/>
<path id="Vector_14" d="M39.0145 20.884H38.3174V16.1007H39.0145V20.884Z" fill="#F2F3F4"/>
<path id="Vector_15" d="M40.6967 20.2997H43.193V20.9414H40V16.1581H40.6967V20.2997Z" fill="#F2F3F4"/>
</g>
</g>
<defs>
<clipPath id="clip0_8616_519">
<rect width="80" height="21" fill="white"/>
</clipPath>
</defs>
</svg>
