<svg width="120" height="21" viewBox="0 0 120 21" fill="none" xmlns="http://www.w3.org/2000/svg">
<g id="Noverde 3" clip-path="url(#clip0_8616_509)">
<path id="Vector" d="M22.1473 2.84991C21.8462 1.85163 21.1436 1.053 20.2404 0.553853C19.6382 0.254366 19.036 0.0547078 18.4338 0.0547078C17.0287 0.0547078 15.6236 0.853339 15.0214 2.15111L11.5087 8.73983L7.79521 2.05128C6.79156 0.154537 4.48319 -0.544263 2.57628 0.454023C1.57264 0.953168 0.970454 1.7518 0.669364 2.75009C0.368273 3.74838 0.468637 4.8465 0.970454 5.74497L7.69486 18.3234C7.99596 19.3217 8.69846 20.1203 9.60176 20.5196C11.5087 21.5179 13.8171 20.8191 14.9211 18.9224L21.9465 5.84477C22.348 4.94632 22.4484 3.84821 22.1473 2.84991ZM7.89556 15.3285C7.79521 15.4283 7.79521 15.628 7.69486 15.7278L2.07446 5.14598C1.77337 4.54701 1.673 3.84821 1.87373 3.14941C2.07446 2.55043 2.57628 1.95146 3.17846 1.65197C3.57992 1.45231 3.98137 1.35248 4.38283 1.35248C5.28611 1.35248 6.18936 1.85163 6.69121 2.75009L10.7058 10.2372L7.89556 15.3285ZM20.6418 5.24581L13.6163 18.3234C13.2149 19.122 12.3116 19.721 11.308 19.721C10.9065 19.721 10.5051 19.6212 10.1036 19.4215C8.89921 18.7227 8.39741 17.2253 8.99956 15.9275L16.0251 2.84991C16.4265 2.05128 17.3298 1.45231 18.3334 1.45231C19.4374 1.45231 20.4411 2.15111 20.8425 3.24924C21.0433 3.94804 21.0433 4.64684 20.6418 5.24581Z" fill="#F2F3F4"/>
<path id="Vector_2" d="M31.2809 9.0348L39.1093 18.4187H42.2205V2.5459H38.5071V12.0297L30.6787 2.5459H27.5674V18.4187H31.2809V9.0348Z" fill="#F2F3F4"/>
<path id="Vector_3" d="M53.7612 6.83818C52.7577 6.33906 51.5533 6.03955 50.2486 6.03955C48.9438 6.03955 47.7395 6.33906 46.7358 6.83818C45.7322 7.33735 44.9293 8.13598 44.3271 9.03441C43.7249 10.0328 43.4238 11.1308 43.4238 12.3288C43.4238 13.5267 43.7249 14.6249 44.3271 15.6232C44.9293 16.6215 45.7322 17.3202 46.7358 17.8194C47.7395 18.3185 48.9438 18.618 50.2486 18.618C51.5533 18.618 52.6571 18.3185 53.7612 17.8194C54.7647 17.3202 55.568 16.5216 56.1701 15.6232C56.7722 14.6249 57.0735 13.5267 57.0735 12.3288C57.0735 11.1308 56.7722 10.0328 56.1701 9.03441C55.6681 8.13598 54.8653 7.33735 53.7612 6.83818ZM53.3598 12.3288C53.3598 13.3271 53.0585 14.1257 52.557 14.7247C51.9548 15.3237 51.2522 15.6232 50.3489 15.6232C49.4457 15.6232 48.7431 15.3237 48.1409 14.7247C47.5387 14.1257 47.2376 13.3271 47.2376 12.3288C47.2376 11.3305 47.5387 10.5319 48.1409 9.9329C48.7431 9.33393 49.4457 9.03441 50.3489 9.03441C51.2522 9.03441 51.9548 9.33393 52.557 9.9329C53.0585 10.5319 53.3598 11.3305 53.3598 12.3288Z" fill="#F2F3F4"/>
<path id="Vector_4" d="M62.2897 18.4187H66.0029L72.8277 2.64573L72.9283 2.5459H69.1145L64.2967 13.7267L59.4794 2.5459H55.3643L62.2897 18.4187Z" fill="#F2F3F4"/>
<path id="Vector_5" d="M80.66 6.73857C79.656 6.2394 78.5524 5.93994 77.3477 5.93994C76.1435 5.93994 75.0394 6.2394 74.0359 6.73857C73.0319 7.23769 72.2291 8.03632 71.7276 9.03461C71.125 10.0329 70.8242 11.131 70.8242 12.2291C70.8242 13.4271 71.125 14.5252 71.7276 15.5235C72.3297 16.5218 73.1325 17.2206 74.2366 17.7197C75.3407 18.2189 76.5449 18.5184 77.9498 18.5184C80.158 18.5184 81.8642 17.8196 83.0684 16.5218L81.0614 14.4254L80.9608 14.5252C80.5594 14.9245 80.0574 15.224 79.656 15.4236C79.1545 15.6234 78.6525 15.7232 77.9498 15.7232C77.0469 15.7232 76.2436 15.5235 75.6415 15.1242C75.0394 14.7249 74.638 14.1259 74.5374 13.4271H83.7711V13.3273C83.8717 12.5286 83.8717 12.4288 83.8717 12.329C83.8717 11.0312 83.5704 9.93309 83.0684 8.9348C82.4663 8.03632 81.6635 7.33754 80.66 6.73857ZM80.3587 11.2308H74.5374C74.638 10.5321 74.9393 9.93309 75.5414 9.53378C76.0429 9.13446 76.7456 8.83495 77.5484 8.83495C78.3512 8.83495 78.9538 9.03461 79.4553 9.53378C79.8567 9.93309 80.2586 10.5321 80.3587 11.2308Z" fill="#F2F3F4"/>
<path id="Vector_6" d="M92.5974 9.43373V6.03955H92.4968C91.5939 6.03955 90.6905 6.23921 89.9878 6.53872C89.2856 6.83818 88.7836 7.2375 88.3822 7.73667V6.23921H84.8691V18.5182H88.5829V12.7281C88.5829 11.63 88.8836 10.8314 89.3857 10.2324C89.9878 9.73324 90.6905 9.43373 91.694 9.43373C91.8947 9.33393 92.0954 9.33393 92.5974 9.43373Z" fill="#F2F3F4"/>
<path id="Vector_7" d="M102.134 7.33815C101.23 6.43966 100.026 5.94049 98.5205 5.94049C97.4164 5.94049 96.3123 6.24001 95.4089 6.73912C94.506 7.23829 93.7027 8.03692 93.2012 8.93541C92.6992 9.9337 92.3984 11.0318 92.3984 12.2297C92.3984 13.5275 92.6992 14.6256 93.2012 15.5241C93.7027 16.5224 94.506 17.2212 95.4089 17.7203C96.3123 18.2195 97.4164 18.519 98.5205 18.519C100.126 18.519 101.331 18.0198 102.234 17.0215V18.3193H105.747V2.34668H102.033V7.33815H102.134ZM101.431 9.9337C102.033 10.5327 102.334 11.3313 102.334 12.3296C102.334 13.3279 102.033 14.1265 101.431 14.7255C100.829 15.3244 100.126 15.6239 99.2227 15.6239C98.3198 15.6239 97.6171 15.3244 97.015 14.7255C96.4129 14.1265 96.1116 13.3279 96.1116 12.3296C96.1116 11.3313 96.4129 10.5327 97.015 9.9337C97.6171 9.33472 98.3198 9.03521 99.2227 9.03521C100.126 9.03521 100.829 9.33472 101.431 9.9337Z" fill="#F2F3F4"/>
<path id="Vector_8" d="M119.099 9.03441C118.497 8.03613 117.794 7.33735 116.79 6.83818C115.787 6.33906 114.683 6.03955 113.479 6.03955C112.274 6.03955 111.17 6.33906 110.166 6.83818C109.163 7.33735 108.36 8.13598 107.858 9.13427C107.256 10.1326 106.955 11.2307 106.955 12.3288C106.955 13.5267 107.256 14.6249 107.858 15.6232C108.46 16.6215 109.263 17.3202 110.367 17.8194C111.471 18.3185 112.676 18.618 114.081 18.618C116.289 18.618 117.995 17.9192 119.199 16.6215L117.192 14.525L117.092 14.6249C116.69 15.0242 116.188 15.3237 115.787 15.5233C115.285 15.723 114.783 15.8228 114.081 15.8228C113.177 15.8228 112.374 15.6232 111.772 15.2238C111.17 14.8245 110.769 14.2256 110.668 13.5267H119.902V13.4269C120.002 12.6283 120.002 12.5284 120.002 12.4286C119.902 11.1308 119.601 9.9329 119.099 9.03441ZM110.568 11.2307C110.668 10.5319 110.97 9.9329 111.572 9.53358C112.073 9.13427 112.776 8.83476 113.579 8.83476C114.382 8.83476 114.984 9.03441 115.486 9.53358C115.988 9.9329 116.289 10.5319 116.49 11.2307H110.568Z" fill="#F2F3F4"/>
</g>
<defs>
<clipPath id="clip0_8616_509">
<rect width="120" height="21" fill="white"/>
</clipPath>
</defs>
</svg>
