<svg width="64" height="64" viewBox="0 0 64 64" fill="none" xmlns="http://www.w3.org/2000/svg">
<g id="Group 5561">
<rect id="Rectangle 712" width="64" height="64" rx="32" fill="black"/>
<g id="Group 5558">
<path id="Vector" d="M28.3478 20H22.6087C21.9171 20.0008 21.254 20.2759 20.7649 20.7649C20.2759 21.254 20.0008 21.9171 20 22.6087V28.3478C20.0008 29.0395 20.2759 29.7025 20.7649 30.1916C21.254 30.6807 21.9171 30.9558 22.6087 30.9565H28.3478C29.0395 30.9558 29.7025 30.6807 30.1916 30.1916C30.6807 29.7025 30.9558 29.0395 30.9565 28.3478V22.6087C30.9558 21.9171 30.6807 21.254 30.1916 20.7649C29.7025 20.2759 29.0395 20.0008 28.3478 20ZM27.8261 27.8261H23.1304V23.1304H27.8261V27.8261Z" fill="#F2F3F4"/>
<path id="Vector_2" d="M28.3478 33.0435H22.6087C21.9171 33.0442 21.254 33.3193 20.7649 33.8084C20.2759 34.2974 20.0008 34.9605 20 35.6522V41.3913C20.0008 42.0829 20.2759 42.746 20.7649 43.2351C21.254 43.7241 21.9171 43.9992 22.6087 44H28.3478C29.0395 43.9992 29.7025 43.7241 30.1916 43.2351C30.6807 42.746 30.9558 42.0829 30.9565 41.3913V35.6522C30.9558 34.9605 30.6807 34.2974 30.1916 33.8084C29.7025 33.3193 29.0395 33.0442 28.3478 33.0435ZM27.8261 40.8695H23.1304V36.1739H27.8261V40.8695Z" fill="#F2F3F4"/>
<path id="Vector_3" d="M41.3908 20H35.6517C34.96 20.0008 34.2969 20.2759 33.8079 20.7649C33.3188 21.254 33.0437 21.9171 33.043 22.6087V28.3478C33.0437 29.0395 33.3188 29.7025 33.8079 30.1916C34.2969 30.6807 34.96 30.9558 35.6517 30.9565H41.3908C42.0824 30.9558 42.7455 30.6807 43.2346 30.1916C43.7236 29.7025 43.9987 29.0395 43.9995 28.3478V22.6087C43.9987 21.9171 43.7236 21.254 43.2346 20.7649C42.7455 20.2759 42.0824 20.0008 41.3908 20ZM40.8691 27.8261H36.1734V23.1304H40.8691V27.8261Z" fill="#F2F3F4"/>
<path id="Vector_4" d="M34.6082 39.3043C35.0233 39.3043 35.4214 39.1394 35.7149 38.8459C36.0085 38.5523 36.1734 38.1542 36.1734 37.7391V34.6087C36.1734 34.1936 36.0085 33.7954 35.715 33.5019C35.4214 33.2084 35.0233 33.0435 34.6082 33.0435C34.1931 33.0435 33.7949 33.2084 33.5014 33.5019C33.2079 33.7954 33.043 34.1936 33.043 34.6087V37.7391C33.043 38.1542 33.2079 38.5523 33.5014 38.8459C33.795 39.1394 34.1931 39.3043 34.6082 39.3043Z" fill="#F2F3F4"/>
<path id="Vector_5" d="M42.4343 35.1304H40.8691V34.6087C40.8691 34.1936 40.7041 33.7954 40.4106 33.5019C40.1171 33.2084 39.719 33.0435 39.3038 33.0435C38.8887 33.0435 38.4906 33.2084 38.1971 33.5019C37.9035 33.7954 37.7386 34.1936 37.7386 34.6087V40.8695H34.6082C34.1931 40.8695 33.7949 41.0345 33.5014 41.328C33.2079 41.6215 33.043 42.0196 33.043 42.4348C33.043 42.8499 33.2079 43.248 33.5014 43.5415C33.7949 43.8351 34.1931 44 34.6082 44H39.3038C39.719 44 40.1171 43.835 40.4106 43.5415C40.7041 43.248 40.869 42.8499 40.8691 42.4348V38.2608H42.4343C42.8494 38.2608 43.2475 38.0959 43.541 37.8024C43.8346 37.5089 43.9995 37.1108 43.9995 36.6956C43.9995 36.2805 43.8346 35.8824 43.541 35.5889C43.2475 35.2953 42.8494 35.1304 42.4343 35.1304Z" fill="#F2F3F4"/>
</g>
</g>
</svg>
