<svg width="7" height="4" viewBox="0 0 7 4" fill="none" xmlns="http://www.w3.org/2000/svg">
<path id="Vector" fill-rule="evenodd" clip-rule="evenodd" d="M0.0734469 0.0714238C0.0966698 0.0487834 0.124258 0.0308207 0.15463 0.0185646C0.185003 0.00630851 0.217563 0 0.250447 0C0.283331 0 0.315891 0.00630851 0.346264 0.0185646C0.376636 0.0308207 0.404224 0.0487834 0.427447 0.0714238L3.25045 2.81716L6.07345 0.0714238C6.09669 0.04882 6.12429 0.0308897 6.15465 0.0186566C6.18502 0.00642358 6.21758 0.000127287 6.25045 0.000127287C6.28332 0.000127287 6.31587 0.00642358 6.34624 0.0186566C6.37661 0.0308897 6.4042 0.04882 6.42745 0.0714238C6.45069 0.0940275 6.46913 0.120862 6.48171 0.150395C6.49429 0.179928 6.50076 0.211582 6.50076 0.243549C6.50076 0.275515 6.49429 0.307169 6.48171 0.336702C6.46913 0.366235 6.45069 0.39307 6.42745 0.415674L3.42745 3.33304C3.40422 3.35568 3.37664 3.37365 3.34626 3.3859C3.31589 3.39816 3.28333 3.40447 3.25045 3.40447C3.21756 3.40447 3.185 3.39816 3.15463 3.3859C3.12426 3.37365 3.09667 3.35568 3.07345 3.33304L0.0734469 0.415674C0.0501653 0.39309 0.0316939 0.366262 0.0190907 0.336726C0.00648743 0.30719 0 0.275527 0 0.243549C0 0.211571 0.00648743 0.179907 0.0190907 0.150371C0.0316939 0.120835 0.0501653 0.094007 0.0734469 0.0714238Z" fill="#20BD9D"/>
</svg>
