<svg width="71" height="32" viewBox="0 0 71 32" fill="none" xmlns="http://www.w3.org/2000/svg">
<g id="Logo">
<path id="L2" d="M45.0436 32V25.1397H31.9426C31.9426 24.166 37.176 21.3989 39.059 20.3154C43.3964 17.8368 45.4767 14.5173 45.4767 10.4011C45.4767 4.60304 41.0949 0 33.792 0C26.3563 0 22.1516 4.91286 22.1516 10.5781C22.1516 11.3306 22.2401 12.1272 22.3287 12.6141H30.1184C29.9857 12.0387 29.9414 11.3748 29.9414 10.888C29.9414 8.4094 31.402 6.77178 33.8363 6.77178C35.9608 6.77178 37.3771 8.32089 37.3771 10.4011C37.3771 12.3485 36.4476 13.8091 33.9248 15.2697L29.366 17.9696C24.0783 21.0506 20.1729 25.7303 20.1729 32H45.0436Z" fill="#F2F3F4"/>
<path id="L2_2" d="M20.1826 31.999V24.165H8.23236V0.618652H0V31.999H20.1826Z" fill="#F2F3F4"/>
<g id="Group 5552">
<path id="Union" fill-rule="evenodd" clip-rule="evenodd" d="M59.3298 3.60401L55.7268 7.20703L55.7278 7.20805L55.7289 7.20702L59.3331 10.8113L55.7289 14.4155L52.1248 10.8115L52.1238 10.8125L48.5195 7.20825L51.8059 3.92187L51.8047 3.92065L55.7256 -0.000244141L59.3298 3.60401ZM70.1564 7.20798L66.9603 4.01188L66.9614 4.01071L62.9514 0.000684738L59.3472 3.60494L62.949 7.2068L62.9479 7.20798L66.5521 10.8122L70.1564 7.20798ZM59.3428 10.8142L62.947 14.4184L66.5513 10.8142L62.947 7.20992L59.3428 10.8142Z" fill="#27E5BF"/>
</g>
</g>
</svg>
