<svg width="24" height="24" viewBox="0 0 24 24" fill="none" xmlns="http://www.w3.org/2000/svg">
<g id="Group">
<path id="Vector" d="M24 11.6913C24 18.1477 18.7253 23.3817 12.2172 23.3817C10.1519 23.3817 8.21182 22.8535 6.52297 21.9285L0 24L2.12632 17.7259C1.05416 15.965 0.436691 13.8974 0.436691 11.6905C0.437474 5.23403 5.71063 0 12.2187 0C18.7261 0.0015652 24 5.23481 24 11.6913ZM12.2164 1.86415C6.75462 1.86415 2.3118 6.27332 2.3118 11.6936C2.3118 13.8442 3.01301 15.8351 4.19865 17.4551L2.96214 21.1044L6.76714 19.8953C8.33234 20.922 10.2051 21.5199 12.2164 21.5199C17.6782 21.5199 22.1225 17.1116 22.1225 11.6913C22.1241 6.27332 17.6789 1.86415 12.2164 1.86415ZM18.1673 14.3842C18.0937 14.266 17.9012 14.194 17.6132 14.05C17.326 13.906 15.904 13.2134 15.6403 13.1195C15.3742 13.0232 15.1817 12.9747 14.9891 13.2619C14.799 13.5492 14.2449 14.194 14.0751 14.3865C13.9068 14.5783 13.7385 14.6025 13.4498 14.4609C13.161 14.3153 12.2297 14.0148 11.1262 13.0389C10.2677 12.2782 9.68781 11.3414 9.52033 11.0542C9.35051 10.7678 9.50311 10.6128 9.64633 10.4704C9.77546 10.3413 9.93511 10.1355 10.0799 9.9672C10.2247 9.8005 10.2724 9.68233 10.3687 9.49059C10.4634 9.29885 10.4156 9.13216 10.3444 8.98738C10.2724 8.84338 9.69563 7.4347 9.45381 6.86106C9.21355 6.28819 8.97329 6.38289 8.80425 6.38289C8.63599 6.38289 8.44347 6.35941 8.25095 6.35941C8.05843 6.35941 7.74539 6.42906 7.48166 6.71627C7.21792 7.00349 6.47132 7.69609 6.47132 9.10634C6.47132 10.5181 7.50514 11.8791 7.64992 12.07C7.79548 12.2602 9.64868 15.249 12.5842 16.3963C15.5213 17.5428 15.5213 17.1601 16.0503 17.1116C16.5809 17.063 17.7595 16.419 17.999 15.7506C18.2401 15.0791 18.2401 14.5039 18.1673 14.3842Z" fill="#171B21"/>
</g>
</svg>
